<svg version="1.2" xmlns="http://www.w3.org/2000/svg" viewBox="0 0 154 26" width="154" height="26">
	<title>logo_secondary-svg</title>
	<style>
		.s0 { fill: #f8b92e } 
		.s1 { fill: #04f26b } 
		.s2 { fill: #dee2e8 } 
	</style>
	<path id="Layer" class="s0" d="m109.6 12.9c-1.3 0-2.4 0-3.8 0 0 2.1 0 4.1 0 6.1-1.1 0-1.9 0-2.9 0 0-4.8 0-9.6 0-14.4 0.8 0 1.7 0 2.7 0q0 2.7 0 5.6c2.3 0 4.4 0 6.6 0 0-1.9 0-3.8 0-5.7 1 0 1.9 0 2.7 0 0 4.8 0 9.6 0 14.4-0.8 0-1.6 0-2.7 0 0-1.9 0-3.8 0-6-1 0-1.7 0-2.6 0z"/>
	<path id="Layer" class="s1" d="m45.6 5.4c3.1-1.9 6.1-1.3 9.2 0-0.4 0.8-0.7 1.6-1.1 2.3-0.9-0.3-1.8-0.6-2.8-0.7-0.7-0.2-1.6-0.2-2.3 0-0.5 0.2-1.2 0.7-1.3 1.1-0.1 0.5 0.5 1.3 1 1.5 1.3 0.6 2.8 0.9 4.1 1.7 1 0.6 2.1 1.6 2.5 2.5 0.8 2.1-0.4 4.2-2.6 4.9-2.9 1.1-5.7 0.6-8.5-0.7 0.3-0.8 0.7-1.5 0.9-2 1.9 0.3 3.5 0.7 5.2 0.6 0.7 0 1.5-0.9 2.2-1.4-0.6-0.6-1.1-1.4-1.8-1.8-1-0.5-2.2-0.7-3.3-1.1-3.1-1.3-3.7-4.2-1.4-6.9z"/>
	<path id="Layer" fill-rule="evenodd" class="s0" d="m132.3 20c0-3.3 0-6.4-0.1-9.6 0-0.9 0.3-1.3 1.2-1.5 1.2-0.2 2.4-0.5 3.6-0.6 3.6 0 6.1 2.5 5.9 6-0.2 3.3-3 5.4-6.6 5-0.4-0.1-0.6-0.1-1.1-0.2 0 1.3 0 2.5 0 3.8-1 0-1.9 0-2.9 0 0-0.9 0-1.9 0-2.9zm2.9-6.6c0 0.8-0.1 1.5 0 2.3 0.1 0.3 0.3 0.8 0.6 0.9 1.4 0.4 2.7 0.2 3.6-1 0.8-1.1 0.8-3.2-0.4-3.9-0.9-0.5-2.2-0.6-3.3-0.6-0.2 0-0.4 1.3-0.5 2.3z"/>
	<path id="Layer" fill-rule="evenodd" class="s1" d="m58.2 8.7c1-0.2 1.8-0.4 2.6-0.4 3.8 0 6.2 2.5 6 6.1-0.2 3.2-3 5.3-6.7 4.9-0.3-0.1-0.5-0.1-0.9-0.2 0 1.2 0 2.4 0 3.7-1.1 0-2 0-3.1 0 0-4.2 0-8.6 0.1-12.9 0-0.5 1.2-0.8 2-1.2zm5.6 5.5c0-0.4 0-0.8-0.1-1.3-0.4-1.4-1.6-2.1-3.5-2-1.8 0.1-0.9 1.5-1.1 2.3-0.1 0.5 0 1 0 1.5 0 1.9 0.9 2.6 2.6 1.9 0.9-0.3 1.4-1.4 2.1-2.4z"/>
	<path id="Layer" fill-rule="evenodd" class="s1" d="m70.2 8.7c0.5-0.2 1-0.2 1.4-0.3 4.2-0.5 6 1 6 5.2 0 1.3 0.1 2.8 0 4.2 0 0.4-0.4 1.1-0.7 1.1-2.3 0.2-4.5 0.3-6.8 0.1-1.5-0.1-2.5-1.3-2.5-2.9 0-1.7 0.9-2.7 2.5-3.1 1.4-0.2 3-0.1 4.4-0.3-0.2-2-1-2.2-5.9-1.4 0.2-1-0.2-2.3 1.6-2.6zm4.5 6.4c-1.2 0-2.3-0.2-3.4-0.2-0.1 0-0.3 1.1-0.4 1.6 1.1 0.2 2.1 0.5 3.2 0.5 0.2 0 0.4-1 0.6-1.9z"/>
	<path id="Layer" fill-rule="evenodd" class="s0" d="m126.1 18.2c-1.8 0.4-3.7 1.1-5.5 0.9-3.4-0.4-5.3-3.6-4.2-7 0.8-3 4-4.5 7.1-3.4 2.3 0.7 3.5 2.6 3.5 5.7q-3.8 0-7.6 0c0.6 2.5 2.4 3 5.9 1.5 0.3 0.8 0.6 1.5 0.8 2.3zm-5.6-7.2c-0.4 0.4-0.9 0.9-1.5 1.6 1.9 0 3.4 0 5 0-0.7-1.6-1.7-2.2-3.5-1.6z"/>
	<path id="Layer" fill-rule="evenodd" class="s1" d="m93.9 16.8c1.2-0.2 2.5-0.4 3.9-0.7 0.2 0.5 0.6 1.1 1 1.7-3.6 3-9.3 1.5-10.2-2.7-0.5-2.2 0-4.3 1.9-5.7 1.9-1.4 4-1.5 6.1-0.5 2.2 1.1 2.8 3.2 2.7 5.6-2.5 0-5 0-7.5 0q-0.2 0.3-0.3 0.5 1.1 0.9 2.4 1.8zm1.9-5.3c-1.9-1.4-3.5-1-4 1.2 1.3 0 2.5 0.1 3.7 0 0.2 0 0.3-0.6 0.3-1.2z"/>
	<path id="Layer" class="s1" d="m83.9 10.8c-2 0.8-2.7 2.1-2.2 4 0.5 2 1.7 2.4 5.2 1.7 0.3 0.6 0.6 1.2 0.9 1.8-2.4 1.6-5.9 1.3-7.8-0.7-1.8-1.8-2-5.1-0.4-7.2 1.7-2.2 5.1-2.7 8.3-1.1-0.3 0.6-0.7 1.3-1 1.8-1.1-0.1-2-0.2-3-0.3z"/>
	<path id="Layer" class="s0" d="m131 18.2c-0.6 1-0.7 1-2.9 0.7 0-4.7 0-9.5 0-14.4 0.9 0 1.8 0 2.9 0 0 4.6 0 9.1 0 13.7z"/>
	<path id="Layer" class="s2" d="m19.2 21.7c-0.4 0.7-0.6 1.3-1 2.1-0.7-1.5 6.9-21.4 8.8-22.2-2.7 6.7-5.2 13.4-7.8 20.1z"/>
	<path id="Layer" class="s2" d="m10.8 13.7c2.2 1.8 4.6 3.3 6.5 5.3q-0.2 0.4-0.5 0.7c-3.1-2.4-6.1-4.7-9.4-7.3 3.2-2.5 6.2-4.9 9.3-7.2q0.2 0.2 0.5 0.4c-0.3 0.4-0.5 0.9-0.9 1.2-2.2 1.8-4.5 3.6-7.2 6.1 0.5 0.2 1.1 0.4 1.7 0.8z"/>
	<path id="Layer" class="s2" d="m29.2 17.2c2-1.6 3.9-3.1 6-4.8-2.7-2.2-5.5-4.3-8.1-6.5q0.2-0.4 0.5-0.7c3.3 2.1 6.1 4.7 9.5 7.2-3.3 2.6-6.3 4.9-9.4 7.3q-0.3-0.3-0.6-0.7c0.7-0.6 1.4-1.2 2.1-1.8z"/>
</svg>