<svg version="1.1" id="Layer_1" xmlns="http://www.w3.org/2000/svg" xmlns:xlink="http://www.w3.org/1999/xlink" x="0px" y="0px"
	 width="100%" viewBox="0 0 640 624" enable-background="new 0 0 640 624" xml:space="preserve">
<path fill="#000000" opacity="1.000000" stroke="none" 
	d="
M408.693695,465.364868 
	C412.115082,474.788757 418.267853,477.475006 427.994446,476.927887 
	C445.106049,475.965332 462.310852,476.675964 479.476532,476.634552 
	C481.252441,476.630249 483.127838,477.111359 485.081268,475.903259 
	C485.053345,473.173645 483.350555,470.995117 482.074738,468.781219 
	C462.201721,434.295807 442.208466,399.879608 422.378601,365.369507 
	C419.989441,361.211639 417.583679,360.715332 413.584106,363.121918 
	C403.882111,368.959778 393.946625,374.408875 384.227051,380.218445 
	C380.731689,382.307709 378.922607,381.835419 376.872406,378.132080 
	C370.340057,366.332550 363.474304,354.713989 356.557007,343.133240 
	C354.389587,339.504608 354.159515,337.478271 358.529449,335.006104 
	C383.466187,320.898956 408.231415,306.485748 432.938507,291.978271 
	C437.090027,289.540588 439.021301,290.208557 441.413757,294.370422 
	C476.438385,355.298950 511.639618,416.125977 546.781677,476.987061 
	C555.524902,492.129150 564.206238,507.306976 572.919983,522.466187 
	C573.659912,523.753479 574.693787,524.922546 574.482422,526.625671 
	C572.907776,528.270325 570.804871,527.854675 568.865662,527.855408 
	C510.368744,527.877869 451.871674,527.808228 393.375183,527.964233 
	C387.211761,527.980652 383.587250,525.979858 380.406769,520.436646 
	C347.746674,463.514496 314.762482,406.778320 281.896545,349.974182 
	C264.128784,319.265167 246.445389,288.507263 228.624924,257.828918 
	C227.001984,255.035019 226.929367,252.865051 228.577164,250.026749 
	C258.515289,198.458649 288.354553,146.833176 318.235962,95.232155 
	C319.219879,93.533104 319.912811,91.579750 321.765167,90.441689 
	C324.021942,90.560875 324.608459,92.453560 325.497345,93.988770 
	C352.203156,140.112274 378.908569,186.236008 405.595612,232.370377 
	C409.098541,238.425949 412.345398,244.635773 416.017853,250.584625 
	C417.840851,253.537567 417.513580,255.258636 414.522980,256.958954 
	C402.070190,264.038879 389.639160,271.159637 377.296692,278.429382 
	C374.056396,280.337921 372.454834,279.617798 370.646606,276.446533 
	C356.048401,250.844009 341.299622,225.327301 326.564606,199.802979 
	C325.429108,197.836044 324.608521,195.530685 322.180573,194.572891 
	C319.904236,195.173218 319.273102,197.253937 318.317566,198.910782 
	C308.499908,215.934006 298.804382,233.028030 288.910919,250.006821 
	C287.269257,252.824173 287.292572,254.922638 288.937622,257.763855 
	C316.808014,305.899750 344.565155,354.101257 372.341736,402.291443 
	C384.399048,423.209991 396.443573,444.135864 408.693695,465.364868 
z"/>
<path fill="#000000" opacity="1.000000" stroke="none" 
	d="
M207.567245,286.635864 
	C211.463974,280.287354 214.288513,273.689148 219.823395,266.931091 
	C270.111572,353.966736 319.909637,440.154083 370.287994,527.345825 
	C269.371094,527.345825 169.650253,527.345825 68.640709,527.345825 
	C115.265083,446.550751 161.317062,366.747589 207.567245,286.635864 
M202.652023,399.092896 
	C188.085083,424.387451 173.518158,449.682007 158.384598,475.960449 
	C199.489075,475.960449 239.151398,475.960449 280.426849,475.960449 
	C260.019348,440.593872 240.318527,406.451935 219.935669,371.128052 
	C212.456802,380.324554 208.556412,389.926239 202.652023,399.092896 
z"/>
</svg>