<svg version="1.2" xmlns="http://www.w3.org/2000/svg" viewBox="0 0 163 87" width="163" height="87">
	<title>logo_primary-svg</title>
	<style>
		.s0 { fill: #f8b92e } 
		.s1 { fill: #04f26b } 
		.s2 { fill: #dee2e8 } 
	</style>
	<path id="Layer" class="s0" d="m104.9 60.5c-2 0-3.7 0-5.7 0 0 3.2 0 6.2 0 9.3-1.6 0-2.9 0-4.4 0 0-7.4 0-14.6 0-22 1.3 0 2.6 0 4.1 0q0 4.1 0 8.5c3.4 0 6.5 0 9.8 0 0-2.9 0-5.7 0-8.6 1.5 0 2.8 0 4.1 0 0 7.3 0 14.6 0 22-1.2 0-2.5 0-4.1 0 0-3 0-5.9 0-9.2-1.4 0-2.5 0-3.8 0z"/>
	<path id="Layer" class="s1" d="m9.5 49.1c4.6-2.9 9-2.1 13.7 0-0.6 1.2-1 2.3-1.6 3.4-1.4-0.4-2.8-0.9-4.2-1.1-1.1-0.2-2.4-0.3-3.4 0-0.8 0.3-1.9 1.1-2 1.8-0.1 0.7 0.8 1.9 1.5 2.2 2 1 4.2 1.4 6.1 2.6 1.5 0.9 3.1 2.4 3.7 3.9 1.2 3.2-0.6 6.3-3.9 7.5-4.2 1.6-8.4 0.9-12.6-1.2 0.5-1.2 1-2.3 1.3-3 2.8 0.4 5.3 1 7.8 0.9 1.1 0 2.2-1.3 3.3-2.1-0.9-0.9-1.7-2.1-2.7-2.7-1.5-0.8-3.3-1.1-4.9-1.8-4.6-2-5.5-6.4-2.1-10.4z"/>
	<path id="Layer" fill-rule="evenodd" class="s0" d="m138.6 71.3c0-5 0-9.8-0.1-14.6 0-1.4 0.4-2.1 1.8-2.3 1.8-0.3 3.6-0.8 5.3-0.9 5.5 0 9.1 3.7 8.8 9.1-0.3 5-4.4 8.3-9.8 7.6-0.5-0.1-0.9-0.1-1.6-0.2 0 1.9 0 3.7 0 5.7-1.5 0-2.8 0-4.4 0 0-1.4 0-2.8 0-4.4zm4.4-10.1c0 1.2-0.1 2.3 0 3.5 0.1 0.5 0.5 1.3 0.9 1.4 2 0.6 4 0.4 5.3-1.5 1.2-1.7 1.2-4.9-0.5-5.9-1.4-0.8-3.3-0.9-5-1-0.2 0-0.5 2-0.7 3.5z"/>
	<path id="Layer" fill-rule="evenodd" class="s1" d="m28.2 54c1.5-0.2 2.7-0.5 3.9-0.5 5.7 0 9.3 3.7 8.9 9.2-0.3 5-4.4 8.2-9.9 7.5-0.4-0.1-0.8-0.1-1.4-0.2 0 1.8 0 3.6 0 5.6-1.6 0-2.9 0-4.5 0 0-6.5-0.1-13.1 0.1-19.7 0-0.7 1.8-1.3 2.9-1.9zm8.4 8.5c0-0.6 0-1.3-0.1-2-0.6-2.2-2.5-3.3-5.2-3.1-2.8 0.2-1.4 2.3-1.7 3.6-0.1 0.7 0 1.5 0 2.2 0 2.9 1.3 4 3.9 2.9 1.3-0.5 2.1-2.1 3.1-3.6z"/>
	<path id="Layer" fill-rule="evenodd" class="s1" d="m46.1 54c0.8-0.2 1.5-0.3 2.1-0.4 6.3-0.8 9 1.6 9 7.9 0 2.1 0.1 4.3 0 6.4-0.1 0.7-0.7 1.8-1.1 1.8-3.4 0.2-6.7 0.4-10.1 0.1-2.3-0.2-3.7-2-3.7-4.5-0.1-2.5 1.3-4.1 3.7-4.6 2.1-0.4 4.4-0.3 6.6-0.5-0.3-3.1-1.5-3.4-8.9-2.1 0.4-1.6-0.2-3.6 2.4-4.1zm6.7 9.9c-1.7-0.1-3.4-0.3-5-0.3-0.2 0-0.4 1.6-0.6 2.4 1.6 0.3 3.1 0.7 4.7 0.7 0.3 0 0.6-1.5 0.9-2.8z"/>
	<path id="Layer" fill-rule="evenodd" class="s0" d="m129.5 68.6c-2.8 0.6-5.6 1.7-8.2 1.4-5.2-0.7-7.9-5.6-6.4-10.8 1.2-4.5 6-6.8 10.7-5.2 3.4 1.1 5.1 4 5.1 8.8q-5.6 0-11.3 0c0.9 3.8 3.6 4.5 8.9 2.2 0.4 1.2 0.9 2.3 1.2 3.6zm-8.4-11.1c-0.6 0.7-1.3 1.4-2.3 2.5 2.9 0 5.1 0 7.5 0-1-2.5-2.5-3.3-5.2-2.5z"/>
	<path id="Layer" fill-rule="evenodd" class="s1" d="m81.4 66.4c1.9-0.3 3.7-0.6 5.8-1 0.3 0.7 0.9 1.7 1.5 2.6-5.3 4.6-13.8 2.2-15.2-4.2-0.7-3.4 0-6.5 2.9-8.6 2.8-2.2 6-2.4 9.1-0.8 3.2 1.7 4.1 4.8 4 8.5-3.8 0-7.5 0-11.2 0q-0.3 0.4-0.5 0.8c1.1 0.9 2.3 1.8 3.6 2.7zm2.9-8c-2.8-2.2-5.2-1.6-6 1.8 1.9 0 3.8 0.1 5.6-0.1 0.3 0 0.4-0.9 0.4-1.7z"/>
	<path id="Layer" class="s1" d="m66.5 57.3c-3 1.2-4 3.2-3.3 6.1 0.8 3 2.6 3.6 7.8 2.6 0.4 0.9 0.9 1.8 1.4 2.7-3.6 2.5-8.9 2-11.6-1-2.7-2.8-3-7.8-0.6-11 2.5-3.4 7.5-4.2 12.3-1.7-0.5 0.9-1 1.9-1.5 2.8-1.6-0.2-3-0.4-4.5-0.5z"/>
	<path id="Layer" class="s0" d="m136.7 68.6c-0.9 1.5-1 1.5-4.3 1 0-7.2 0-14.4 0-21.9 1.4 0 2.7 0 4.3 0 0 6.9 0 13.8 0 20.9z"/>
	<path id="Layer" class="s2" d="m76.1 36.7c-0.5 1-0.8 1.8-1.3 2.8-0.9-2 9.2-28.8 11.7-29.9-3.5 9-6.9 18-10.4 27.1z"/>
	<path id="Layer" class="s2" d="m64.9 25.9c3 2.5 6.2 4.5 8.7 7.2q-0.3 0.5-0.7 0.9c-4.1-3.2-8.1-6.4-12.5-9.8 4.3-3.4 8.3-6.6 12.4-9.8q0.3 0.3 0.7 0.6c-0.4 0.5-0.7 1.2-1.2 1.6-3 2.5-6 4.8-9.6 8.2 0.7 0.3 1.4 0.6 2.2 1.1z"/>
	<path id="Layer" class="s2" d="m89.5 30.6c2.7-2.1 5.2-4.1 8-6.4-3.7-3-7.3-5.9-10.8-8.8q0.3-0.5 0.7-0.9c4.3 2.8 8.1 6.3 12.6 9.7-4.4 3.4-8.4 6.6-12.5 9.8q-0.4-0.4-0.8-0.9c0.9-0.8 1.8-1.6 2.8-2.5z"/>
</svg>